<svg version="1.1" viewBox="0.0 0.0 518.8005249343832 313.0236220472441" fill="none" stroke="none" stroke-linecap="square" stroke-miterlimit="10" xmlns:xlink="http://www.w3.org/1999/xlink" xmlns="http://www.w3.org/2000/svg"><clipPath id="p.0"><path d="m0 0l518.80054 0l0 313.02362l-518.80054 0l0 -313.02362z" clip-rule="nonzero"/></clipPath><g clip-path="url(#p.0)"><path fill="#000000" fill-opacity="0.0" d="m0 0l518.80054 0l0 313.02362l-518.80054 0z" fill-rule="evenodd"/><path fill="#ffffff" d="m0.671916 0.6456693l518.8031 0l0 313.03937l-518.8031 0z" fill-rule="evenodd"/><path fill="#000000" fill-opacity="0.0" d="m475.12073 109.92913c0 12.370079 -8.196838 18.555122 -16.393707 24.740166c-8.196838 6.185028 -16.393677 12.370071 -16.393677 24.740158" fill-rule="evenodd"/><path stroke="#ff9900" stroke-width="4.0" stroke-linejoin="round" stroke-linecap="butt" d="m475.12073 109.92913c0 12.370079 -8.196838 18.555122 -16.393707 24.740166c-8.196838 6.185028 -16.393677 12.370071 -16.393677 24.740158" fill-rule="evenodd"/><path fill="#000000" fill-opacity="0.0" d="m442.45932 110.37008c0 12.259842 7.968506 18.389763 15.937012 24.519691c7.968506 6.1299133 15.937012 12.259842 15.937012 24.519684" fill-rule="evenodd"/><path stroke="#00ff00" stroke-width="4.0" stroke-linejoin="round" stroke-linecap="butt" d="m442.45932 110.37008c0 12.259842 7.968506 18.389763 15.937012 24.519691c7.968506 6.1299133 15.937012 12.259842 15.937012 24.519684" fill-rule="evenodd"/><path fill="#000000" fill-opacity="0.0" d="m378.33334 109.42519l0 49.98426" fill-rule="evenodd"/><path stroke="#ff0000" stroke-width="4.0" stroke-linejoin="round" stroke-linecap="butt" d="m378.33334 109.42519l0 49.98426" fill-rule="evenodd"/><path fill="#000000" fill-opacity="0.0" d="m410.33334 109.42519l0 49.98426" fill-rule="evenodd"/><path stroke="#000000" stroke-width="4.0" stroke-linejoin="round" stroke-linecap="butt" d="m410.33334 109.42519l0 49.98426" fill-rule="evenodd"/><path fill="#cfe2f3" d="m11.3359585 9.590551l175.2441 0l0 292.97638l-175.2441 0z" fill-rule="evenodd"/><path stroke="#000000" stroke-width="1.0" stroke-linejoin="round" stroke-linecap="butt" d="m11.3359585 9.590551l175.2441 0l0 292.97638l-175.2441 0z" fill-rule="evenodd"/><path fill="#000000" d="m60.37988 158.58748l2.28125 0.578125q-0.71875 2.796875 -2.578125 4.28125q-1.859375 1.46875 -4.546875 1.46875q-2.765625 0 -4.515625 -1.125q-1.734375 -1.140625 -2.640625 -3.28125q-0.90625 -2.15625 -0.90625 -4.609375q0 -2.6875 1.015625 -4.6875q1.03125 -2.0 2.921875 -3.03125q1.890625 -1.03125 4.171875 -1.03125q2.578125 0 4.328125 1.3125q1.765625 1.3125 2.453125 3.6875l-2.234375 0.53125q-0.609375 -1.875 -1.75 -2.734375q-1.125 -0.859375 -2.84375 -0.859375q-1.984375 0 -3.3125 0.953125q-1.328125 0.953125 -1.875 2.546875q-0.53125 1.59375 -0.53125 3.296875q0 2.1875 0.625 3.828125q0.640625 1.640625 1.984375 2.453125q1.359375 0.796875 2.921875 0.796875q1.921875 0 3.234375 -1.09375q1.328125 -1.109375 1.796875 -3.28125zm4.019535 -0.1875q0 -3.46875 1.921875 -5.125q1.609375 -1.390625 3.921875 -1.390625q2.5625 0 4.1875 1.6875q1.625 1.6875 1.625 4.640625q0 2.40625 -0.71875 3.78125q-0.71875 1.375 -2.09375 2.140625q-1.375 0.765625 -3.0 0.765625q-2.625 0 -4.234375 -1.671875q-1.609375 -1.6875 -1.609375 -4.828125zm2.171875 0q0 2.390625 1.03125 3.578125q1.046875 1.1875 2.640625 1.1875q1.5625 0 2.609375 -1.1875q1.046875 -1.203125 1.046875 -3.65625q0 -2.3125 -1.0625 -3.5q-1.046875 -1.1875 -2.59375 -1.1875q-1.59375 0 -2.640625 1.1875q-1.03125 1.1875 -1.03125 3.578125zm11.957031 6.21875l0 -12.453125l1.890625 0l0 1.75q0.59375 -0.90625 1.5625 -1.46875q0.96875 -0.5625 2.21875 -0.5625q1.375 0 2.25 0.578125q0.890625 0.578125 1.265625 1.609375q1.46875 -2.1875 3.84375 -2.1875q1.84375 0 2.84375 1.03125q1.0 1.03125 1.0 3.15625l0 8.546875l-2.109375 0l0 -7.84375q0 -1.265625 -0.203125 -1.8125q-0.203125 -0.5625 -0.75 -0.90625q-0.53125 -0.34375 -1.25 -0.34375q-1.3125 0 -2.1875 0.875q-0.859375 0.875 -0.859375 2.796875l0 7.234375l-2.109375 0l0 -8.09375q0 -1.40625 -0.515625 -2.109375q-0.515625 -0.703125 -1.6875 -0.703125q-0.890625 0 -1.65625 0.46875q-0.75 0.46875 -1.09375 1.375q-0.34375 0.90625 -0.34375 2.609375l0 6.453125l-2.109375 0zm19.992188 4.765625l0 -17.21875l1.921875 0l0 1.625q0.6875 -0.953125 1.53125 -1.421875q0.859375 -0.484375 2.078125 -0.484375q1.59375 0 2.8125 0.828125q1.21875 0.8125 1.84375 2.3125q0.625 1.5 0.625 3.28125q0 1.90625 -0.6875 3.4375q-0.6875 1.53125 -2.0 2.34375q-1.296875 0.8125 -2.734375 0.8125q-1.0625 0 -1.90625 -0.4375q-0.828125 -0.453125 -1.375 -1.140625l0 6.0625l-2.109375 0zm1.921875 -10.921875q0 2.40625 0.96875 3.5625q0.96875 1.140625 2.359375 1.140625q1.40625 0 2.40625 -1.1875q1.0 -1.1875 1.0 -3.6875q0 -2.375 -0.984375 -3.5625q-0.96875 -1.1875 -2.328125 -1.1875q-1.359375 0 -2.390625 1.265625q-1.03125 1.25 -1.03125 3.65625zm19.582031 6.15625l0 -1.828125q-1.453125 2.109375 -3.9375 2.109375q-1.109375 0 -2.0625 -0.421875q-0.953125 -0.421875 -1.421875 -1.0625q-0.453125 -0.640625 -0.640625 -1.5625q-0.140625 -0.625 -0.140625 -1.96875l0 -7.71875l2.109375 0l0 6.90625q0 1.65625 0.140625 2.234375q0.1875 0.828125 0.828125 1.3125q0.65625 0.46875 1.609375 0.46875q0.9375 0 1.765625 -0.484375q0.84375 -0.5 1.1875 -1.328125q0.34375 -0.84375 0.34375 -2.4375l0 -6.671875l2.109375 0l0 12.453125l-1.890625 0zm9.800781 -1.890625l0.3125 1.859375q-0.890625 0.203125 -1.59375 0.203125q-1.15625 0 -1.796875 -0.359375q-0.625 -0.375 -0.890625 -0.96875q-0.25 -0.59375 -0.25 -2.484375l0 -7.171875l-1.546875 0l0 -1.640625l1.546875 0l0 -3.078125l2.09375 -1.265625l0 4.34375l2.125 0l0 1.640625l-2.125 0l0 7.28125q0 0.90625 0.109375 1.171875q0.125 0.25 0.375 0.40625q0.25 0.140625 0.71875 0.140625q0.34375 0 0.921875 -0.078125zm10.5898285 -2.125l2.171875 0.28125q-0.515625 1.90625 -1.90625 2.96875q-1.3906097 1.046875 -3.5624847 1.046875q-2.734375 0 -4.34375 -1.671875q-1.59375 -1.6875 -1.59375 -4.734375q0 -3.140625 1.609375 -4.875q1.625 -1.734375 4.203125 -1.734375q2.4999847 0 4.0781097 1.703125q1.59375 1.703125 1.59375 4.78125q0 0.1875 -0.015625 0.5625l-9.281235 0q0.109375 2.046875 1.15625 3.140625q1.046875 1.09375 2.609375 1.09375q1.15625 0 1.96875 -0.609375q0.82810974 -0.609375 1.3124847 -1.953125zm-6.9374847 -3.40625l6.9531097 0q-0.140625 -1.5625 -0.796875 -2.359375q-0.99998474 -1.21875 -2.6093597 -1.21875q-1.453125 0 -2.453125 0.984375q-0.984375 0.96875 -1.09375 2.59375zm11.738266 7.421875l0 -12.453125l1.890625 0l0 1.890625q0.734375 -1.328125 1.34375 -1.75q0.625 -0.421875 1.359375 -0.421875q1.0625 0 2.171875 0.6875l-0.734375 1.953125q-0.765625 -0.453125 -1.546875 -0.453125q-0.6875 0 -1.25 0.421875q-0.546875 0.40625 -0.78125 1.140625q-0.34375 1.125 -0.34375 2.46875l0 6.515625l-2.109375 0z" fill-rule="nonzero"/><path fill="#fff2cc" d="m160.4357 16.10761l74.11023 0l0 40.125984l-74.11023 0z" fill-rule="evenodd"/><path stroke="#000000" stroke-width="1.0" stroke-linejoin="round" stroke-linecap="butt" d="m160.4357 16.10761l74.11023 0l0 40.125984l-74.11023 0z" fill-rule="evenodd"/><path fill="#000000" d="m188.51389 29.731226l1.765625 0l0 7.718752q0 2.015625 -0.453125 3.203125q-0.453125 1.1875 -1.640625 1.9375q-1.1875 0.734375 -3.125 0.734375q-1.875 0 -3.078125 -0.640625q-1.1875 -0.65625 -1.703125 -1.875q-0.5 -1.234375 -0.5 -3.359375l0 -7.718752l1.765625 0l0 7.718752q0 1.734375 0.3125 2.5625q0.328125 0.8125 1.109375 1.265625q0.796875 0.453125 1.9375 0.453125q1.953125 0 2.78125 -0.890625q0.828125 -0.890625 0.828125 -3.390625l0 -7.718752zm4.113571 9.062502l1.65625 -0.140625q0.125 1.0 0.546875 1.640625q0.4375 0.640625 1.34375 1.046875q0.921875 0.390625 2.0625 0.390625q1.0 0 1.78125 -0.296875q0.78125 -0.296875 1.15625 -0.8125q0.375 -0.53125 0.375 -1.15625q0 -0.625 -0.375 -1.09375q-0.359375 -0.46875 -1.1875 -0.796875q-0.546875 -0.203125 -2.390625 -0.640625q-1.828125 -0.453125 -2.5625 -0.84375q-0.96875 -0.5 -1.4375 -1.234375q-0.46875 -0.75 -0.46875 -1.671875q0 -1.0 0.578125 -1.8750019q0.578125 -0.890625 1.671875 -1.34375q1.109375 -0.453125 2.453125 -0.453125q1.484375 0 2.609375 0.484375q1.140625 0.46875 1.75 1.40625q0.609375 0.9218769 0.65625 2.093752l-1.6875 0.125q-0.140625 -1.265625 -0.9375 -1.9062519q-0.78125 -0.65625 -2.3125 -0.65625q-1.609375 0 -2.34375 0.59375q-0.734375 0.5937519 -0.734375 1.4218769q0 0.71875 0.53125 1.171875q0.5 0.46875 2.65625 0.96875q2.15625 0.484375 2.953125 0.84375q1.171875 0.53125 1.71875 1.359375q0.5625 0.828125 0.5625 1.90625q0 1.0625 -0.609375 2.015625q-0.609375 0.9375 -1.75 1.46875q-1.140625 0.515625 -2.578125 0.515625q-1.8125 0 -3.046875 -0.53125q-1.21875 -0.53125 -1.921875 -1.59375q-0.6875 -1.0625 -0.71875 -2.40625zm12.959198 4.296875l0 -13.359377l5.015625 0q1.53125 0 2.453125 0.40625q0.921875 0.40625 1.4375 1.25q0.53125 0.8437519 0.53125 1.7656269q0 0.859375 -0.46875 1.625q-0.453125 0.75 -1.390625 1.203125q1.203125 0.359375 1.859375 1.21875q0.65625 0.859375 0.65625 2.015625q0 0.9375 -0.40625 1.75q-0.390625 0.796875 -0.984375 1.234375q-0.578125 0.4375 -1.453125 0.671875q-0.875 0.21875 -2.15625 0.21875l-5.09375 0zm1.78125 -7.75l2.875 0q1.1875 0 1.6875 -0.140625q0.671875 -0.203125 1.015625 -0.671875q0.34375 -0.46875 0.34375 -1.171875q0 -0.65625 -0.328125 -1.15625q-0.3125 -0.5156269 -0.90625 -0.7031269q-0.59375 -0.1875 -2.03125 -0.1875l-2.65625 0l0 4.031252zm0 6.171875l3.3125 0q0.859375 0 1.203125 -0.0625q0.609375 -0.109375 1.015625 -0.359375q0.421875 -0.265625 0.6875 -0.75q0.265625 -0.484375 0.265625 -1.125q0 -0.75 -0.390625 -1.296875q-0.375 -0.546875 -1.0625 -0.765625q-0.671875 -0.234375 -1.953125 -0.234375l-3.078125 0l0 4.59375z" fill-rule="nonzero"/><path fill="#d9ead3" d="m352.4357 10.217848l154.14172 0l0 54.015747l-154.14172 0z" fill-rule="evenodd"/><path stroke="#000000" stroke-width="1.0" stroke-linejoin="round" stroke-linecap="butt" d="m352.4357 10.217848l154.14172 0l0 54.015747l-154.14172 0z" fill-rule="evenodd"/><path fill="#000000" d="m392.7139 30.786345l1.765625 0l0 7.718748q0 2.015625 -0.453125 3.203125q-0.453125 1.1875 -1.640625 1.9375q-1.1875 0.734375 -3.125 0.734375q-1.875 0 -3.078125 -0.640625q-1.1875 -0.65625 -1.703125 -1.875q-0.5 -1.234375 -0.5 -3.359375l0 -7.718748l1.765625 0l0 7.718748q0 1.734375 0.3125 2.5625q0.328125 0.8125 1.109375 1.265625q0.796875 0.453125 1.9375 0.453125q1.953125 0 2.78125 -0.890625q0.828125 -0.890625 0.828125 -3.390625l0 -7.718748zm4.113556 9.062498l1.65625 -0.140625q0.125 1.0 0.546875 1.640625q0.4375 0.640625 1.34375 1.046875q0.921875 0.390625 2.0625 0.390625q1.0 0 1.78125 -0.296875q0.78125 -0.296875 1.15625 -0.8125q0.375 -0.53125 0.375 -1.15625q0 -0.625 -0.375 -1.09375q-0.359375 -0.46875 -1.1875 -0.796875q-0.546875 -0.203125 -2.390625 -0.640625q-1.828125 -0.453125 -2.5625 -0.84375q-0.96875 -0.5 -1.4375 -1.234375q-0.46875 -0.75 -0.46875 -1.671875q0 -1.0 0.578125 -1.875q0.578125 -0.8906231 1.671875 -1.3437481q1.109375 -0.453125 2.453125 -0.453125q1.484375 0 2.609375 0.484375q1.140625 0.46875 1.75 1.4062481q0.609375 0.921875 0.65625 2.09375l-1.6875 0.125q-0.140625 -1.265625 -0.9375 -1.90625q-0.78125 -0.65625 -2.3125 -0.65625q-1.609375 0 -2.34375 0.59375q-0.734375 0.59375 -0.734375 1.421875q0 0.71875 0.53125 1.171875q0.5 0.46875 2.65625 0.96875q2.15625 0.484375 2.953125 0.84375q1.171875 0.53125 1.71875 1.359375q0.5625 0.828125 0.5625 1.90625q0 1.0625 -0.609375 2.015625q-0.609375 0.9375 -1.75 1.46875q-1.140625 0.515625 -2.578125 0.515625q-1.8125 0 -3.046875 -0.53125q-1.21875 -0.53125 -1.921875 -1.59375q-0.6875 -1.0625 -0.71875 -2.40625zm12.959198 4.296875l0 -13.359373l5.015625 0q1.53125 0 2.453125 0.40625q0.921875 0.40625 1.4375 1.2499981q0.53125 0.84375 0.53125 1.765625q0 0.859375 -0.46875 1.625q-0.453125 0.75 -1.390625 1.203125q1.203125 0.359375 1.859375 1.21875q0.65625 0.859375 0.65625 2.015625q0 0.9375 -0.40625 1.75q-0.390625 0.796875 -0.984375 1.234375q-0.578125 0.4375 -1.453125 0.671875q-0.875 0.21875 -2.15625 0.21875l-5.09375 0zm1.78125 -7.75l2.875 0q1.1875 0 1.6875 -0.140625q0.671875 -0.203125 1.015625 -0.671875q0.34375 -0.46875 0.34375 -1.171875q0 -0.65625 -0.328125 -1.15625q-0.3125 -0.515625 -0.90625 -0.703125q-0.59375 -0.1875 -2.03125 -0.1875l-2.65625 0l0 4.03125zm0 6.171875l3.3125 0q0.859375 0 1.203125 -0.0625q0.609375 -0.109375 1.015625 -0.359375q0.421875 -0.265625 0.6875 -0.75q0.265625 -0.484375 0.265625 -1.125q0 -0.75 -0.390625 -1.296875q-0.375 -0.546875 -1.0625 -0.765625q-0.671875 -0.234375 -1.953125 -0.234375l-3.078125 0l0 4.59375zm24.689392 -11.781248l1.765625 0l0 7.718748q0 2.015625 -0.453125 3.203125q-0.453125 1.1875 -1.640625 1.9375q-1.1875 0.734375 -3.125 0.734375q-1.875 0 -3.078125 -0.640625q-1.1875 -0.65625 -1.703125 -1.875q-0.5 -1.234375 -0.5 -3.359375l0 -7.718748l1.765625 0l0 7.718748q0 1.734375 0.3125 2.5625q0.328125 0.8125 1.109375 1.265625q0.796875 0.453125 1.9375 0.453125q1.953125 0 2.78125 -0.890625q0.828125 -0.890625 0.828125 -3.390625l0 -7.718748zm3.238556 13.359373l5.125 -13.359373l1.90625 0l5.46875 13.359373l-2.015625 0l-1.546875 -4.046875l-5.59375 0l-1.46875 4.046875l-1.875 0zm3.859375 -5.484375l4.53125 0l-1.40625 -3.703125q-0.625 -1.6875 -0.9375 -2.765625q-0.265625 1.28125 -0.71875 2.546875l-1.46875 3.921875zm10.084198 5.484375l0 -13.359373l5.921875 0q1.78125 0 2.703125 0.359375q0.9375 0.359375 1.484375 1.2812481q0.5625 0.90625 0.5625 2.015625q0 1.40625 -0.921875 2.390625q-0.921875 0.96875 -2.84375 1.234375q0.703125 0.34375 1.078125 0.671875q0.765625 0.703125 1.453125 1.765625l2.328125 3.640625l-2.21875 0l-1.765625 -2.78125q-0.78125 -1.203125 -1.28125 -1.828125q-0.5 -0.640625 -0.90625 -0.890625q-0.390625 -0.265625 -0.796875 -0.359375q-0.296875 -0.078125 -0.984375 -0.078125l-2.046875 0l0 5.9375l-1.765625 0zm1.765625 -7.453125l3.796875 0q1.21875 0 1.890625 -0.25q0.6875 -0.265625 1.046875 -0.8125q0.359375 -0.546875 0.359375 -1.1875q0 -0.953125 -0.6875 -1.5625q-0.6875 -0.609375 -2.1875 -0.609375l-4.21875 0l0 4.421875zm14.745087 7.453125l0 -11.78125l-4.40625 0l0 -1.5781231l10.578125 0l0 1.5781231l-4.40625 0l0 11.78125l-1.765625 0z" fill-rule="nonzero"/><path fill="#fce5cd" d="m352.4357 208.1076l146.58267 0l0 94.456696l-146.58267 0z" fill-rule="evenodd"/><path stroke="#000000" stroke-width="1.0" stroke-linejoin="round" stroke-linecap="butt" d="m352.4357 208.1076l146.58267 0l0 94.456696l-146.58267 0z" fill-rule="evenodd"/><path fill="#000000" d="m400.27203 262.25595l0 -13.359375l1.765625 0l0 5.484375l6.9375 0l0 -5.484375l1.765625 0l0 13.359375l-1.765625 0l0 -6.296875l-6.9375 0l0 6.296875l-1.765625 0zm22.94168 -4.6875l1.765625 0.453125q-0.5625 2.171875 -2.0 3.328125q-1.4375 1.140625 -3.53125 1.140625q-2.15625 0 -3.515625 -0.875q-1.34375 -0.890625 -2.0625 -2.546875q-0.703125 -1.671875 -0.703125 -3.59375q0 -2.078125 0.796875 -3.625q0.796875 -1.5625 2.265625 -2.359375q1.484375 -0.8125 3.25 -0.8125q2.0 0 3.359375 1.015625q1.375 1.015625 1.90625 2.875l-1.734375 0.40625q-0.46875 -1.453125 -1.359375 -2.109375q-0.875 -0.671875 -2.203125 -0.671875q-1.546875 0 -2.578125 0.734375q-1.03125 0.734375 -1.453125 1.984375q-0.421875 1.234375 -0.421875 2.5625q0 1.703125 0.5 2.96875q0.5 1.265625 1.546875 1.90625q1.046875 0.625 2.265625 0.625q1.484375 0 2.515625 -0.859375q1.03125 -0.859375 1.390625 -2.546875zm3.0979614 0.671875l0 -1.640625l5.03125 0l0 1.640625l-5.03125 0zm6.400177 -2.578125q0 -2.359375 0.484375 -3.796875q0.484375 -1.453125 1.4375 -2.234375q0.96875 -0.78125 2.421875 -0.78125q1.078125 0 1.890625 0.4375q0.8125 0.421875 1.328125 1.25q0.53125 0.8125 0.828125 1.984375q0.3125 1.15625 0.3125 3.140625q0 2.359375 -0.484375 3.8125q-0.484375 1.4375 -1.453125 2.234375q-0.953125 0.78125 -2.421875 0.78125q-1.921875 0 -3.03125 -1.390625q-1.3125 -1.671875 -1.3125 -5.4375zm1.671875 0q0 3.296875 0.765625 4.390625q0.78125 1.078125 1.90625 1.078125q1.140625 0 1.90625 -1.09375q0.765625 -1.09375 0.765625 -4.375q0 -3.296875 -0.765625 -4.375q-0.765625 -1.078125 -1.921875 -1.078125q-1.125 0 -1.796875 0.953125q-0.859375 1.21875 -0.859375 4.5zm17.203827 -3.484375l-1.625 0.125q-0.21875 -0.96875 -0.625 -1.40625q-0.65625 -0.703125 -1.640625 -0.703125q-0.78125 0 -1.375 0.4375q-0.765625 0.5625 -1.21875 1.65625q-0.453125 1.078125 -0.46875 3.078125q0.59375 -0.890625 1.453125 -1.328125q0.859375 -0.4375 1.796875 -0.4375q1.640625 0 2.78125 1.203125q1.15625 1.203125 1.15625 3.109375q0 1.265625 -0.546875 2.34375q-0.53125 1.078125 -1.484375 1.65625q-0.9375 0.578125 -2.140625 0.578125q-2.0625 0 -3.359375 -1.5q-1.28125 -1.515625 -1.28125 -4.984375q0 -3.875 1.421875 -5.625q1.25 -1.53125 3.375 -1.53125q1.5625 0 2.5625 0.890625q1.015625 0.875 1.21875 2.4375zm-6.6875 5.75q0 0.84375 0.359375 1.625q0.359375 0.765625 1.0 1.171875q0.640625 0.40625 1.359375 0.40625q1.03125 0 1.78125 -0.828125q0.75 -0.84375 0.75 -2.28125q0 -1.390625 -0.734375 -2.1875q-0.734375 -0.796875 -1.859375 -0.796875q-1.109375 0 -1.890625 0.796875q-0.765625 0.796875 -0.765625 2.09375z" fill-rule="nonzero"/><path fill="#ff0000" d="m389.6719 159.40945l0 54.015747l-22.677155 0l0 -54.015747z" fill-rule="evenodd"/><path stroke="#000000" stroke-width="1.0" stroke-linejoin="round" stroke-linecap="butt" d="m389.6719 159.40945l0 54.015747l-22.677155 0l0 -54.015747z" fill-rule="evenodd"/><path fill="#ffffff" d="m373.25333 175.07025l10.484375 -4.0625l0 1.5l-7.609375 2.734375q-0.921875 0.328125 -1.71875 0.546875q0.859375 0.25 1.71875 0.5625l7.609375 2.84375l0 1.40625l-10.484375 -4.109375l0 -1.421875zm3.671875 14.259979l-0.34375 1.390625q-1.703125 -0.4375 -2.609375 -1.578125q-0.890625 -1.125 -0.890625 -2.765625q0 -1.6875 0.6875 -2.75q0.6875 -1.0625 2.0 -1.625q1.3125 -0.546875 2.8125 -0.546875q1.640625 0 2.859375 0.625q1.21875 0.625 1.84375 1.78125q0.640625 1.15625 0.640625 2.546875q0 1.5625 -0.8125 2.640625q-0.796875 1.078125 -2.25 1.5l-0.3125 -1.375q1.140625 -0.359375 1.65625 -1.0625q0.53125 -0.6875 0.53125 -1.734375q0 -1.21875 -0.578125 -2.03125q-0.578125 -0.8125 -1.5625 -1.140625q-0.96875 -0.328125 -2.015625 -0.328125q-1.328125 0 -2.328125 0.390625q-1.0 0.390625 -1.5 1.21875q-0.484375 0.828125 -0.484375 1.78125q0 1.171875 0.671875 1.96875q0.671875 0.8125 1.984375 1.09375zm0 10.584274l-0.34375 1.390625q-1.703125 -0.4375 -2.609375 -1.578125q-0.890625 -1.125 -0.890625 -2.765625q0 -1.6875 0.6875 -2.75q0.6875 -1.0625 2.0 -1.625q1.3125 -0.546875 2.8125 -0.546875q1.640625 0 2.859375 0.625q1.21875 0.625 1.84375 1.78125q0.640625 1.15625 0.640625 2.546875q0 1.5625 -0.8125 2.640625q-0.796875 1.078125 -2.25 1.5l-0.3125 -1.375q1.140625 -0.359375 1.65625 -1.0625q0.53125 -0.6875 0.53125 -1.734375q0 -1.21875 -0.578125 -2.03125q-0.578125 -0.8125 -1.5625 -1.140625q-0.96875 -0.328125 -2.015625 -0.328125q-1.328125 0 -2.328125 0.390625q-1.0 0.390625 -1.5 1.21875q-0.484375 0.828125 -0.484375 1.78125q0 1.171875 0.671875 1.96875q0.671875 0.8125 1.984375 1.09375z" fill-rule="nonzero"/><path fill="#000000" d="m421.6719 159.40945l0 54.015747l-22.677155 0l0 -54.015747z" fill-rule="evenodd"/><path stroke="#000000" stroke-width="1.0" stroke-linejoin="round" stroke-linecap="butt" d="m421.6719 159.40945l0 54.015747l-22.677155 0l0 -54.015747z" fill-rule="evenodd"/><path fill="#ffffff" d="m409.3627 176.17987l1.234375 0l0.015625 4.4375l-3.90625 0q-0.8125 -1.03125 -1.21875 -2.125q-0.40625 -1.078125 -0.40625 -2.21875q0 -1.546875 0.65625 -2.8125q0.65625 -1.265625 1.90625 -1.90625q1.265625 -0.640625 2.8125 -0.640625q1.53125 0 2.84375 0.640625q1.328125 0.640625 1.96875 1.84375q0.65625 1.203125 0.65625 2.765625q0 1.140625 -0.375 2.0625q-0.359375 0.921875 -1.03125 1.4375q-0.65625 0.53125 -1.703125 0.796875l-0.34375 -1.25q0.796875 -0.234375 1.25 -0.59375q0.46875 -0.34375 0.734375 -1.0q0.28125 -0.65625 0.28125 -1.4375q0 -0.953125 -0.296875 -1.65625q-0.28125 -0.6875 -0.765625 -1.125q-0.46875 -0.421875 -1.03125 -0.65625q-0.96875 -0.390625 -2.109375 -0.390625q-1.40625 0 -2.359375 0.46875q-0.9375 0.484375 -1.390625 1.40625q-0.453125 0.9375 -0.453125 1.96875q0 0.90625 0.34375 1.765625q0.34375 0.859375 0.734375 1.296875l1.953125 0l0 -3.078125zm-4.109375 6.4626007l10.484375 0l0 1.4375l-8.234375 5.5l8.234375 0l0 1.328125l-10.484375 0l0 -1.421875l8.25 -5.5l-8.25 0l0 -1.34375zm0 10.599899l10.484375 0l0 3.625q0 1.21875 -0.140625 1.859375q-0.203125 0.90625 -0.75 1.546875q-0.703125 0.828125 -1.796875 1.234375q-1.09375 0.40625 -2.5 0.40625q-1.1875 0 -2.109375 -0.28125q-0.921875 -0.265625 -1.53125 -0.703125q-0.609375 -0.4375 -0.953125 -0.96875q-0.34375 -0.515625 -0.53125 -1.25q-0.171875 -0.71875 -0.171875 -1.671875l0 -3.796875zm1.234375 1.390625l0 2.25q0 1.03125 0.1875 1.625q0.203125 0.59375 0.546875 0.9375q0.5 0.5 1.328125 0.765625q0.84375 0.28125 2.03125 0.28125q1.640625 0 2.515625 -0.546875q0.890625 -0.53125 1.1875 -1.3125q0.21875 -0.546875 0.21875 -1.796875l0 -2.203125l-8.015625 0z" fill-rule="nonzero"/><path fill="#ff9900" d="m485.6719 159.40945l0 54.015747l-22.677155 0l0 -54.015747z" fill-rule="evenodd"/><path stroke="#000000" stroke-width="1.0" stroke-linejoin="round" stroke-linecap="butt" d="m485.6719 159.40945l0 54.015747l-22.677155 0l0 -54.015747z" fill-rule="evenodd"/><path fill="#000000" d="m469.25333 175.55795l9.25 0l0 -3.453125l1.234375 0l0 8.3125l-1.234375 0l0 -3.46875l-9.25 0l0 -1.390625zm0 5.2182465l5.46875 4.0625l5.015625 -3.578125l0 1.65625l-2.6875 1.890625q-0.828125 0.59375 -1.28125 0.84375q0.5625 0.359375 1.1875 0.84375l2.78125 2.109375l0 1.5l-4.9375 -3.6875l-5.546875 3.984375l0 -1.71875l3.75 -2.640625q0.3125 -0.21875 0.6875 -0.46875q-0.5625 -0.34375 -0.78125 -0.5l-3.65625 -2.625l0 -1.671875zm0 10.838104l10.484375 0l0 3.625q0 1.21875 -0.140625 1.859375q-0.203125 0.90625 -0.75 1.546875q-0.703125 0.828125 -1.796875 1.234375q-1.09375 0.40625 -2.5 0.40625q-1.1875 0 -2.109375 -0.28125q-0.921875 -0.265625 -1.53125 -0.703125q-0.609375 -0.4375 -0.953125 -0.96875q-0.34375 -0.515625 -0.53125 -1.25q-0.171875 -0.71875 -0.171875 -1.671875l0 -3.796875zm1.234375 1.390625l0 2.25q0 1.03125 0.1875 1.625q0.203125 0.59375 0.546875 0.9375q0.5 0.5 1.328125 0.765625q0.84375 0.28125 2.03125 0.28125q1.640625 0 2.515625 -0.546875q0.890625 -0.53125 1.1875 -1.3125q0.21875 -0.546875 0.21875 -1.796875l0 -2.203125l-8.015625 0z" fill-rule="nonzero"/><path fill="#00ff00" d="m453.6719 159.40945l0 54.015747l-22.677155 0l0 -54.015747z" fill-rule="evenodd"/><path stroke="#000000" stroke-width="1.0" stroke-linejoin="round" stroke-linecap="butt" d="m453.6719 159.40945l0 54.015747l-22.677155 0l0 -54.015747z" fill-rule="evenodd"/><path fill="#000000" d="m437.25333 172.1015l10.484375 0l0 4.640625q0 1.40625 -0.28125 2.140625q-0.28125 0.734375 -1.0 1.171875q-0.703125 0.4375 -1.578125 0.4375q-1.109375 0 -1.875 -0.734375q-0.765625 -0.71875 -0.984375 -2.234375q-0.25 0.5625 -0.515625 0.84375q-0.5625 0.609375 -1.390625 1.15625l-2.859375 1.8125l0 -1.734375l2.1875 -1.390625q0.9375 -0.609375 1.4375 -1.0q0.5 -0.390625 0.703125 -0.703125q0.203125 -0.3125 0.28125 -0.640625q0.046875 -0.234375 0.046875 -0.765625l0 -1.609375l-4.65625 0l0 -1.390625zm5.859375 1.390625l0 2.984375q0 0.9375 0.1875 1.46875q0.203125 0.546875 0.640625 0.828125q0.4375 0.28125 0.9375 0.28125q0.75 0 1.21875 -0.546875q0.484375 -0.53125 0.484375 -1.703125l0 -3.3125l-3.46875 0zm-5.859375 8.099899l5.46875 4.0625l5.015625 -3.578125l0 1.65625l-2.6875 1.890625q-0.828125 0.59375 -1.28125 0.84375q0.5625 0.359375 1.1875 0.84375l2.78125 2.109375l0 1.5l-4.9375 -3.6875l-5.546875 3.984375l0 -1.71875l3.75 -2.640625q0.3125 -0.21875 0.6875 -0.46875q-0.5625 -0.34375 -0.78125 -0.5l-3.65625 -2.625l0 -1.671875zm0 10.838104l10.484375 0l0 3.625q0 1.21875 -0.140625 1.859375q-0.203125 0.90625 -0.75 1.546875q-0.703125 0.828125 -1.796875 1.234375q-1.09375 0.40625 -2.5 0.40625q-1.1875 0 -2.109375 -0.28125q-0.921875 -0.265625 -1.53125 -0.703125q-0.609375 -0.4375 -0.953125 -0.96875q-0.34375 -0.515625 -0.53125 -1.25q-0.171875 -0.71875 -0.171875 -1.671875l0 -3.796875zm1.234375 1.390625l0 2.25q0 1.03125 0.1875 1.625q0.203125 0.59375 0.546875 0.9375q0.5 0.5 1.328125 0.765625q0.84375 0.28125 2.03125 0.28125q1.640625 0 2.515625 -0.546875q0.890625 -0.53125 1.1875 -1.3125q0.21875 -0.546875 0.21875 -1.796875l0 -2.203125l-8.015625 0z" fill-rule="nonzero"/><path fill="#ff0000" d="m389.6719 55.40945l0 54.015743l-22.677155 0l0 -54.015743z" fill-rule="evenodd"/><path stroke="#000000" stroke-width="1.0" stroke-linejoin="round" stroke-linecap="butt" d="m389.6719 55.40945l0 54.015743l-22.677155 0l0 -54.015743z" fill-rule="evenodd"/><path fill="#ffffff" d="m376.00333 74.06334l0.109375 1.34375q-0.984375 0.15625 -1.484375 0.703125q-0.5 0.546875 -0.5 1.328125q0 0.921875 0.703125 1.5625q0.703125 0.65625 1.859375 0.65625q1.109375 0 1.734375 -0.625q0.640625 -0.625 0.640625 -1.625q0 -0.625 -0.28125 -1.125q-0.28125 -0.5 -0.734375 -0.78125l0.15625 -1.203125l5.390625 1.015625l0 5.21875l-1.21875 0l0 -4.1875l-2.828125 -0.578125q0.65625 0.953125 0.65625 1.984375q0 1.375 -0.953125 2.3125q-0.953125 0.953125 -2.4375 0.953125q-1.4375 0 -2.46875 -0.828125q-1.265625 -1.015625 -1.265625 -2.75q0 -1.4375 0.796875 -2.34375q0.796875 -0.90625 2.125 -1.03125zm-2.75 11.666733l10.484375 -4.0625l0 1.5l-7.609375 2.734375q-0.921875 0.328125 -1.71875 0.546875q0.859375 0.25 1.71875 0.5625l7.609375 2.84375l0 1.40625l-10.484375 -4.109375l0 -1.421875z" fill-rule="nonzero"/><path fill="#000000" d="m421.6719 55.40945l0 54.015743l-22.677155 0l0 -54.015743z" fill-rule="evenodd"/><path stroke="#000000" stroke-width="1.0" stroke-linejoin="round" stroke-linecap="butt" d="m421.6719 55.40945l0 54.015743l-22.677155 0l0 -54.015743z" fill-rule="evenodd"/><path fill="#ffffff" d="m409.3627 72.17987l1.234375 0l0.015625 4.4375l-3.90625 0q-0.8125 -1.03125 -1.21875 -2.125q-0.40625 -1.078125 -0.40625 -2.21875q0 -1.546875 0.65625 -2.8125q0.65625 -1.265625 1.90625 -1.90625q1.265625 -0.640625 2.8125 -0.640625q1.53125 0 2.84375 0.640625q1.328125 0.640625 1.96875 1.84375q0.65625 1.203125 0.65625 2.765625q0 1.140625 -0.375 2.0625q-0.359375 0.921875 -1.03125 1.4375q-0.65625 0.53125 -1.703125 0.796875l-0.34375 -1.25q0.796875 -0.234375 1.25 -0.59375q0.46875 -0.34375 0.734375 -1.0q0.28125 -0.65625 0.28125 -1.4375q0 -0.953125 -0.296875 -1.65625q-0.28125 -0.6875 -0.765625 -1.125q-0.46875 -0.421875 -1.03125 -0.65625q-0.96875 -0.390625 -2.109375 -0.390625q-1.40625 0 -2.359375 0.46875q-0.9375 0.484375 -1.390625 1.40625q-0.453125 0.9375 -0.453125 1.96875q0 0.90625 0.34375 1.765625q0.34375 0.859375 0.734375 1.296875l1.953125 0l0 -3.078125zm-4.109375 6.4626007l10.484375 0l0 1.4375l-8.234375 5.5l8.234375 0l0 1.328125l-10.484375 0l0 -1.421875l8.25 -5.5l-8.25 0l0 -1.34375zm0 10.599899l10.484375 0l0 3.625q0 1.21875 -0.140625 1.859375q-0.203125 0.90625 -0.75 1.546875q-0.703125 0.828125 -1.796875 1.234375q-1.09375 0.40625 -2.5 0.40625q-1.1875 0 -2.109375 -0.28125q-0.921875 -0.265625 -1.53125 -0.703125q-0.609375 -0.4375 -0.953125 -0.96875q-0.34375 -0.515625 -0.53125 -1.25q-0.171875 -0.71875 -0.171875 -1.671875l0 -3.796875zm1.234375 1.390625l0 2.25q0 1.03125 0.1875 1.625q0.203125 0.59375 0.546875 0.9375q0.5 0.5 1.328125 0.765625q0.84375 0.28125 2.03125 0.28125q1.640625 0 2.515625 -0.546875q0.890625 -0.53125 1.1875 -1.3125q0.21875 -0.546875 0.21875 -1.796875l0 -2.203125l-8.015625 0z" fill-rule="nonzero"/><path fill="#ff9900" d="m485.6719 55.40945l0 54.015743l-22.677155 0l0 -54.015743z" fill-rule="evenodd"/><path stroke="#000000" stroke-width="1.0" stroke-linejoin="round" stroke-linecap="butt" d="m485.6719 55.40945l0 54.015743l-22.677155 0l0 -54.015743z" fill-rule="evenodd"/><path fill="#000000" d="m469.25333 76.85008l9.25 0l0 -3.453125l1.234375 0l0 8.3125l-1.234375 0l0 -3.46875l-9.25 0l0 -1.390625zm0 5.2182465l5.46875 4.0625l5.015625 -3.578125l0 1.65625l-2.6875 1.890625q-0.828125 0.59375 -1.28125 0.84375q0.5625 0.359375 1.1875 0.84375l2.78125 2.109375l0 1.5l-4.9375 -3.6875l-5.546875 3.984375l0 -1.71875l3.75 -2.640625q0.3125 -0.21875 0.6875 -0.46875q-0.5625 -0.34375 -0.78125 -0.5l-3.65625 -2.625l0 -1.671875z" fill-rule="nonzero"/><path fill="#00ff00" d="m453.6719 55.40945l0 54.015743l-22.677155 0l0 -54.015743z" fill-rule="evenodd"/><path stroke="#000000" stroke-width="1.0" stroke-linejoin="round" stroke-linecap="butt" d="m453.6719 55.40945l0 54.015743l-22.677155 0l0 -54.015743z" fill-rule="evenodd"/><path fill="#000000" d="m437.25333 73.39363l10.484375 0l0 4.640625q0 1.40625 -0.28125 2.140625q-0.28125 0.734375 -1.0 1.171875q-0.703125 0.4375 -1.578125 0.4375q-1.109375 0 -1.875 -0.734375q-0.765625 -0.71875 -0.984375 -2.234375q-0.25 0.5625 -0.515625 0.84375q-0.5625 0.609375 -1.390625 1.15625l-2.859375 1.8125l0 -1.734375l2.1875 -1.390625q0.9375 -0.609375 1.4375 -1.0q0.5 -0.390625 0.703125 -0.703125q0.203125 -0.3125 0.28125 -0.640625q0.046875 -0.234375 0.046875 -0.765625l0 -1.609375l-4.65625 0l0 -1.390625zm5.859375 1.390625l0 2.984375q0 0.9375 0.1875 1.46875q0.203125 0.546875 0.640625 0.828125q0.4375 0.28125 0.9375 0.28125q0.75 0 1.21875 -0.546875q0.484375 -0.53125 0.484375 -1.703125l0 -3.3125l-3.46875 0zm-5.859375 8.099899l5.46875 4.0625l5.015625 -3.578125l0 1.65625l-2.6875 1.890625q-0.828125 0.59375 -1.28125 0.84375q0.5625 0.359375 1.1875 0.84375l2.78125 2.109375l0 1.5l-4.9375 -3.6875l-5.546875 3.984375l0 -1.71875l3.75 -2.640625q0.3125 -0.21875 0.6875 -0.46875q-0.5625 -0.34375 -0.78125 -0.5l-3.65625 -2.625l0 -1.671875z" fill-rule="nonzero"/><path fill="#000000" fill-opacity="0.0" d="m234.54593 36.170605l117.88977 1.0708656" fill-rule="evenodd"/><path stroke="#4a86e8" stroke-width="4.0" stroke-linejoin="round" stroke-linecap="butt" d="m234.54593 36.170605l117.88977 1.0708656" fill-rule="evenodd"/></g></svg>